<svg xmlns="http://www.w3.org/2000/svg" width="260.057" height="75.729" viewBox="0 0 260.057 75.729">
  <g id="Groupe_2411" data-name="Groupe 2411" transform="translate(-555 -2547.666)">
    <g id="Groupe_2349" data-name="Groupe 2349" transform="translate(-1772.436 2072.115)">
      <path id="Tracé_2800" data-name="Tracé 2800" d="M2531.644,502.369l-2.437-11.346-2.436,11.346-11.347,2.437,11.347,2.437,2.436,11.346,2.437-11.346,11.346-2.437Z" transform="translate(16.617 15.528)" fill="#1f6746"/>
      <path id="Tracé_2801" data-name="Tracé 2801" d="M2512.088,498.189l1.706-7.946,7.945-1.706-7.945-1.706-1.706-7.946-1.706,7.946-7.946,1.706,7.946,1.706Z" transform="translate(0 0)" fill="#1f6746"/>
      <path id="Tracé_2802" data-name="Tracé 2802" d="M2542.641,495.207l-1.706-7.945-1.706,7.945-7.945,1.706,7.945,1.706,1.706,7.946,1.706-7.946,7.945-1.706Z" transform="translate(36.906 10.716)" fill="#1f6746"/>
    </g>
    <path id="Tracé_2800-2" data-name="Tracé 2800" d="M2531.644,502.369l-2.437-11.346-2.436,11.346-11.347,2.437,11.347,2.437,2.436,11.346,2.437-11.346,11.346-2.437Z" transform="translate(-1890.818 2056.643)" fill="#1f6746"/>
    <path id="Tracé_2801-2" data-name="Tracé 2801" d="M2512.088,498.189l1.706-7.946,7.945-1.706-7.945-1.706-1.706-7.946-1.706,7.946-7.946,1.706,7.946,1.706Z" transform="translate(-1947.436 2100.115)" fill="#1f6746"/>
    <path id="Tracé_2802-2" data-name="Tracé 2802" d="M2542.641,495.207l-1.706-7.945-1.706,7.945-7.945,1.706,7.945,1.706,1.706,7.946,1.706-7.946,7.945-1.706Z" transform="translate(-1870.529 2116.831)" fill="#1f6746"/>
  </g>
</svg>
